<svg xmlns="http://www.w3.org/2000/svg" width="48" height="48" viewBox="0 0 431.76 431.76" fill="black">
<path d="M215.88 19.376C153.556 19.422 103.044 72.46 103 137.9c.557 42.716 20.351 82.63 53.36
107.604V331.1a8.77 8.77 0 0 0 .56 2.856v.672c.138.347.299.684.48 1.008l28.16 44.016c1.49 2.315
3.979 3.7 6.64 3.696h46.56c2.661.004 5.15-1.38 6.64-3.696l28.16-44.016a8.61 8.61 0 0 0 .48-1.008v-.672a8.77
8.77 0 0 0 .56-2.856v-85.596c33.01-24.973 52.803-64.888 53.36-107.604-.042-65.114-50.069-118.017-112.08-118.524zM234.92
366.8h-38.08l-17.44-27.216h72.88L234.92 366.8zm-62.48-44.016v-22.26h86.88l.08 22.26h-86.96zM263 233.996v.252c-2.259
1.561-3.613 4.216-3.6 7.056v42.672h-86.96V240.8c.013-2.84-1.341-5.495-3.6-7.056-30.628-21.49-49.233-57.421-49.76-96.096
1.537-56.157 46.14-100.374 99.623-98.76 51.323 1.549 92.582 44.87 94.057 98.76-.448 38.765-19.063 74.807-49.76 96.348z"
fill="black" stroke="white" stroke-width="7"/>
</svg>